<?xml version="1.0" encoding="UTF-8" standalone="no"?>
<svg
   xmlns:dc="http://purl.org/dc/elements/1.1/"
   xmlns:cc="http://creativecommons.org/ns#"
   xmlns:rdf="http://www.w3.org/1999/02/22-rdf-syntax-ns#"
   xmlns:svg="http://www.w3.org/2000/svg"
   xmlns="http://www.w3.org/2000/svg"
   xmlns:sodipodi="http://sodipodi.sourceforge.net/DTD/sodipodi-0.dtd"
   xmlns:inkscape="http://www.inkscape.org/namespaces/inkscape"
   version="1.1"
   viewBox="0 0 885.69684 475.46649"
   stroke-miterlimit="10"
   id="svg369"
   sodipodi:docname="WARP-V Drawings (2).svg"
   inkscape:version="0.92.5 (2060ec1f9f, 2020-04-08)"
   width="885.69684"
   height="475.46649"
   style="fill:none;stroke:none;stroke-linecap:square;stroke-miterlimit:10">
  <metadata
     id="metadata375">
    <rdf:RDF>
      <cc:Work
         rdf:about="">
        <dc:format>image/svg+xml</dc:format>
        <dc:type
           rdf:resource="http://purl.org/dc/dcmitype/StillImage" />
      </cc:Work>
    </rdf:RDF>
  </metadata>
  <defs
     id="defs373" />
  <sodipodi:namedview
     pagecolor="#ffffff"
     bordercolor="#666666"
     borderopacity="1"
     objecttolerance="10"
     gridtolerance="10"
     guidetolerance="10"
     inkscape:pageopacity="0"
     inkscape:pageshadow="2"
     inkscape:window-width="1253"
     inkscape:window-height="746"
     id="namedview371"
     showgrid="false"
     inkscape:zoom="0.36145833"
     inkscape:cx="453.53314"
     inkscape:cy="218.66168"
     inkscape:window-x="0"
     inkscape:window-y="27"
     inkscape:window-maximized="0"
     inkscape:current-layer="svg369" />
  <clipPath
     id="g11a9c33c407_0_0.0">
    <path
       d="M 0,0 H 960 V 540 H 0 Z"
       id="path2"
       inkscape:connector-curvature="0"
       style="clip-rule:nonzero" />
  </clipPath>
  <g
     clip-path="url(#g11a9c33c407_0_0.0)"
     id="g367"
     transform="translate(-32,-27.028036)">
    <path
       d="m 681.08655,397.8712 h 22.80316"
       id="path7"
       inkscape:connector-curvature="0"
       style="fill:#000000;fill-opacity:0;fill-rule:evenodd" />
    <path
       d="m 681.08655,397.8712 h 22.80316"
       id="path9"
       inkscape:connector-curvature="0"
       style="fill-rule:evenodd;stroke:#30182b;stroke-width:1;stroke-linecap:butt;stroke-linejoin:round" />
    <path
       d="m 694.93066,415.19565 19.80853,-15.37088 v -30.74173 l -19.80853,-15.37085 z"
       id="path11"
       inkscape:connector-curvature="0"
       style="fill:#ffffff;fill-rule:evenodd" />
    <path
       stroke-miterlimit="8.0"
       d="m 694.93066,415.19565 19.80853,-15.37088 v -30.74173 l -19.80853,-15.37085 z"
       id="path13"
       inkscape:connector-curvature="0"
       style="fill-rule:evenodd;stroke:#000000;stroke-width:2;stroke-linecap:butt;stroke-miterlimit:8" />
    <path
       d="m 207.92651,356.97113 h 378.2992"
       id="path15"
       inkscape:connector-curvature="0"
       style="fill:#000000;fill-opacity:0;fill-rule:evenodd" />
    <path
       d="m 207.92651,356.97113 h 378.2992"
       id="path17"
       inkscape:connector-curvature="0"
       style="fill-rule:evenodd;stroke:#30182b;stroke-width:1;stroke-linecap:butt;stroke-linejoin:round" />
    <path
       d="M 279.58792,384.4567 H 580.87927"
       id="path19"
       inkscape:connector-curvature="0"
       style="fill:#000000;fill-opacity:0;fill-rule:evenodd" />
    <path
       d="M 279.58792,384.4567 H 580.87927"
       id="path21"
       inkscape:connector-curvature="0"
       style="fill-rule:evenodd;stroke:#30182b;stroke-width:1;stroke-linecap:butt;stroke-linejoin:round" />
    <path
       d="m 638.7051,371.1912 h 57.63782"
       id="path23"
       inkscape:connector-curvature="0"
       style="fill:#000000;fill-opacity:0;fill-rule:evenodd" />
    <path
       d="m 638.7051,371.1912 h 57.63782"
       id="path25"
       inkscape:connector-curvature="0"
       style="fill-rule:evenodd;stroke:#30182b;stroke-width:1;stroke-linecap:butt;stroke-linejoin:round" />
    <path
       d="M 726.2878,281.3609 V 449.73886"
       id="path27"
       inkscape:connector-curvature="0"
       style="fill:#000000;fill-opacity:0;fill-rule:evenodd" />
    <path
       d="M 726.2878,281.3609 V 449.73886"
       id="path29"
       inkscape:connector-curvature="0"
       style="fill-rule:evenodd;stroke:#30182b;stroke-width:1;stroke-linecap:butt;stroke-linejoin:round" />
    <path
       d="M 727.14343,281.41953 H 563.42694"
       id="path31"
       inkscape:connector-curvature="0"
       style="fill:#000000;fill-opacity:0;fill-rule:evenodd" />
    <path
       d="M 727.14343,281.41953 H 563.42694"
       id="path33"
       inkscape:connector-curvature="0"
       style="fill-rule:evenodd;stroke:#30182b;stroke-width:1;stroke-linecap:butt;stroke-linejoin:round" />
    <path
       d="M 727.14343,449.47934 H 575.11193"
       id="path35"
       inkscape:connector-curvature="0"
       style="fill:#000000;fill-opacity:0;fill-rule:evenodd" />
    <path
       d="M 727.14343,449.47934 H 575.11193"
       id="path37"
       inkscape:connector-curvature="0"
       style="fill-rule:evenodd;stroke:#30182b;stroke-width:1;stroke-linecap:butt;stroke-linejoin:round" />
    <path
       d="m 574.36017,419.2962 v 30.39368"
       id="path39"
       inkscape:connector-curvature="0"
       style="fill:#000000;fill-opacity:0;fill-rule:evenodd" />
    <path
       d="m 574.36017,419.2962 v 30.39368"
       id="path41"
       inkscape:connector-curvature="0"
       style="fill-rule:evenodd;stroke:#30182b;stroke-width:1;stroke-linecap:butt;stroke-linejoin:round" />
    <path
       d="m 562.66455,281.01373 v 44.78742"
       id="path43"
       inkscape:connector-curvature="0"
       style="fill:#000000;fill-opacity:0;fill-rule:evenodd" />
    <path
       d="m 562.66455,281.01373 v 44.78742"
       id="path45"
       inkscape:connector-curvature="0"
       style="fill-rule:evenodd;stroke:#30182b;stroke-width:1;stroke-linecap:butt;stroke-linejoin:round" />
    <path
       d="m 597.76166,339.25958 h 13.38586"
       id="path47"
       inkscape:connector-curvature="0"
       style="fill:#000000;fill-opacity:0;fill-rule:evenodd" />
    <path
       d="m 597.76166,339.25958 h 13.38586"
       id="path49"
       inkscape:connector-curvature="0"
       style="fill-rule:evenodd;stroke:#30182b;stroke-width:1;stroke-linecap:butt;stroke-linejoin:round" />
    <path
       d="m 597.76166,404.8216 h 13.38586"
       id="path51"
       inkscape:connector-curvature="0"
       style="fill:#000000;fill-opacity:0;fill-rule:evenodd" />
    <path
       d="m 597.76166,404.8216 h 13.38586"
       id="path53"
       inkscape:connector-curvature="0"
       style="fill-rule:evenodd;stroke:#30182b;stroke-width:1;stroke-linecap:butt;stroke-linejoin:round" />
    <path
       d="m 537.20514,383.7897 v 78.96063"
       id="path55"
       inkscape:connector-curvature="0"
       style="fill:#000000;fill-opacity:0;fill-rule:evenodd" />
    <path
       d="m 537.20514,383.7897 v 78.96063"
       id="path57"
       inkscape:connector-curvature="0"
       style="fill-rule:evenodd;stroke:#30182b;stroke-width:1;stroke-linecap:butt;stroke-linejoin:round" />
    <path
       d="M 257.1402,439.42505 H 507.72287"
       id="path59"
       inkscape:connector-curvature="0"
       style="fill:#000000;fill-opacity:0;fill-rule:evenodd" />
    <path
       d="M 257.1402,439.42505 H 507.72287"
       id="path61"
       inkscape:connector-curvature="0"
       style="fill-rule:evenodd;stroke:#30182b;stroke-width:1;stroke-linecap:butt;stroke-linejoin:round" />
    <path
       d="m 508.32303,438.76138 v 35.49606"
       id="path63"
       inkscape:connector-curvature="0"
       style="fill:#000000;fill-opacity:0;fill-rule:evenodd" />
    <path
       d="m 508.32303,438.76138 v 35.49606"
       id="path65"
       inkscape:connector-curvature="0"
       style="fill-rule:evenodd;stroke:#30182b;stroke-width:1;stroke-linecap:butt;stroke-linejoin:round" />
    <path
       d="M 90.477974,239.15096 H 491.0449"
       id="path67"
       inkscape:connector-curvature="0"
       style="fill:#000000;fill-opacity:0;fill-rule:evenodd" />
    <path
       d="M 90.477974,239.15096 H 491.0449"
       id="path69"
       inkscape:connector-curvature="0"
       style="fill-rule:evenodd;stroke:#30182b;stroke-width:1;stroke-linecap:butt;stroke-linejoin:round" />
    <path
       d="m 562.6343,325.5087 h 22.80316"
       id="path71"
       inkscape:connector-curvature="0"
       style="fill:#000000;fill-opacity:0;fill-rule:evenodd" />
    <path
       d="m 562.6343,325.5087 h 22.80316"
       id="path73"
       inkscape:connector-curvature="0"
       style="fill-rule:evenodd;stroke:#30182b;stroke-width:1;stroke-linecap:butt;stroke-linejoin:round" />
    <path
       d="m 574.3832,420.13254 h 11.05511"
       id="path75"
       inkscape:connector-curvature="0"
       style="fill:#000000;fill-opacity:0;fill-rule:evenodd" />
    <path
       d="m 574.3832,420.13254 h 11.05511"
       id="path77"
       inkscape:connector-curvature="0"
       style="fill-rule:evenodd;stroke:#30182b;stroke-width:1;stroke-linecap:butt;stroke-linejoin:round" />
    <path
       d="M 64.272995,277.84778 V 308.8714"
       id="path79"
       inkscape:connector-curvature="0"
       style="fill:#000000;fill-opacity:0;fill-rule:evenodd" />
    <path
       d="M 64.272995,277.84778 V 308.8714"
       id="path81"
       inkscape:connector-curvature="0"
       style="fill-rule:evenodd;stroke:#30182b;stroke-width:1;stroke-linecap:butt;stroke-linejoin:round" />
    <path
       d="M 82.1015,278.70532 H 63.29835"
       id="path83"
       inkscape:connector-curvature="0"
       style="fill:#000000;fill-opacity:0;fill-rule:evenodd" />
    <path
       d="M 82.1015,278.70532 H 63.29835"
       id="path85"
       inkscape:connector-curvature="0"
       style="fill-rule:evenodd;stroke:#30182b;stroke-width:1;stroke-linecap:butt;stroke-linejoin:round" />
    <path
       d="m 91.79794,249.35402 v 48.53545"
       id="path87"
       inkscape:connector-curvature="0"
       style="fill:#000000;fill-opacity:0;fill-rule:evenodd" />
    <path
       d="m 91.79794,249.35402 v 48.53545"
       id="path89"
       inkscape:connector-curvature="0"
       style="fill-rule:evenodd;stroke:#30182b;stroke-width:1;stroke-linecap:butt;stroke-linejoin:round" />
    <path
       d="M 80.931175,258.16843 H 33.340622"
       id="path91"
       inkscape:connector-curvature="0"
       style="fill:#000000;fill-opacity:0;fill-rule:evenodd" />
    <path
       d="M 80.931175,258.16843 H 33.340622"
       id="path93"
       inkscape:connector-curvature="0"
       style="fill-rule:evenodd;stroke:#30182b;stroke-width:1;stroke-linecap:butt;stroke-linejoin:round" />
    <path
       d="m 632.83813,299.0506 v 44.78738"
       id="path95"
       inkscape:connector-curvature="0"
       style="fill:#000000;fill-opacity:0;fill-rule:evenodd" />
    <path
       d="m 632.83813,299.0506 v 44.78738"
       id="path97"
       inkscape:connector-curvature="0"
       style="fill-rule:evenodd;stroke:#30182b;stroke-width:1;stroke-linecap:butt;stroke-linejoin:round" />
    <path
       d="m 564.8387,338.4192 h 22.80316"
       id="path99"
       inkscape:connector-curvature="0"
       style="fill:#000000;fill-opacity:0;fill-rule:evenodd" />
    <path
       d="m 564.8387,338.4192 h 22.80316"
       id="path101"
       inkscape:connector-curvature="0"
       style="fill-rule:evenodd;stroke:#30182b;stroke-width:1;stroke-linecap:butt;stroke-linejoin:round" />
    <path
       d="m 564.8387,403.6954 h 22.80316"
       id="path103"
       inkscape:connector-curvature="0"
       style="fill:#000000;fill-opacity:0;fill-rule:evenodd" />
    <path
       d="m 564.8387,403.6954 h 22.80316"
       id="path105"
       inkscape:connector-curvature="0"
       style="fill-rule:evenodd;stroke:#30182b;stroke-width:1;stroke-linecap:butt;stroke-linejoin:round" />
    <path
       d="M 119.83974,239.95801 V 384.55643"
       id="path107"
       inkscape:connector-curvature="0"
       style="fill:#000000;fill-opacity:0;fill-rule:evenodd" />
    <path
       d="M 119.83974,239.95801 V 384.55643"
       id="path109"
       inkscape:connector-curvature="0"
       style="fill-rule:evenodd;stroke:#30182b;stroke-width:1;stroke-linecap:butt;stroke-linejoin:round" />
    <path
       d="m 610.86896,308.84573 50.07495,27.2792 v 69.17221 l -50.07495,27.27921 v -47.73859 l 11.8822,-12.66534 -11.8822,-8.76831 z"
       id="path111"
       inkscape:connector-curvature="0"
       style="fill:#ffffff;fill-rule:evenodd" />
    <path
       d="m 610.86896,308.84573 50.07495,27.2792 v 69.17221 l -50.07495,27.27921 v -47.73859 l 11.8822,-12.66534 -11.8822,-8.76831 z"
       id="path113"
       inkscape:connector-curvature="0"
       style="fill-rule:evenodd;stroke:#000000;stroke-width:2;stroke-linecap:butt;stroke-linejoin:round" />
    <path
       d="m 637.133,364.75104 h -2.48437 l -1.70313,-4.85938 h -7.54687 l -1.71875,4.85938 h -2.34375 l 6.34375,-17.45313 h 3.09375 z m -4.90625,-6.85938 -3.0625,-8.5625 -3.0625,8.5625 z m 18.59375,6.85938 h -11.04687 v -17.45313 h 2.32812 v 15.39063 h 8.71875 z"
       id="path115"
       inkscape:connector-curvature="0"
       style="fill:#000000;fill-rule:nonzero" />
    <path
       d="m 642.6076,386.7354 q 0,1.90625 -0.42187,3.32813 -0.40625,1.40625 -1.35938,2.34375 -0.90625,0.89062 -2.10937,1.29687 -1.20313,0.40625 -2.8125,0.40625 -1.64063,0 -2.85938,-0.42187 -1.21875,-0.4375 -2.04687,-1.28125 -0.95313,-0.96875 -1.375,-2.32813 -0.40625,-1.35937 -0.40625,-3.34375 v -10.4375 h 2.3125 v 10.5625 q 0,1.42188 0.1875,2.25 0.20312,0.8125 0.65625,1.46875 0.51562,0.76563 1.39062,1.15625 0.89063,0.39063 2.14063,0.39063 1.25,0 2.125,-0.375 0.89062,-0.39063 1.40625,-1.17188 0.46875,-0.65625 0.65625,-1.51562 0.1875,-0.875 0.1875,-2.14063 v -10.625 h 2.32812 z"
       id="path117"
       inkscape:connector-curvature="0"
       style="fill:#000000;fill-rule:nonzero" />
    <path
       d="m 396.66617,318.39493 h 19.81104 v 104.62991 h -19.81104 z"
       id="path119"
       inkscape:connector-curvature="0"
       style="fill:#ffffff;fill-rule:evenodd" />
    <path
       stroke-miterlimit="8.0"
       d="m 396.66617,318.39493 h 19.81104 v 104.62991 h -19.81104 z"
       id="path121"
       inkscape:connector-curvature="0"
       style="fill-rule:evenodd;stroke:#000000;stroke-width:2;stroke-linecap:butt;stroke-miterlimit:8" />
    <path
       d="m 520.68744,490.52603 v 11.96851"
       id="path123"
       inkscape:connector-curvature="0"
       style="fill:#000000;fill-opacity:0;fill-rule:evenodd" />
    <path
       d="m 520.68744,490.52603 v 11.96851"
       id="path125"
       inkscape:connector-curvature="0"
       style="fill-rule:evenodd;stroke:#30182b;stroke-width:1;stroke-linecap:butt;stroke-linejoin:round" />
    <path
       d="M 416.93393,318.39267 H 520.83942 V 423.02261 H 416.93393 Z"
       id="path127"
       inkscape:connector-curvature="0"
       style="fill:#ffffff;fill-rule:evenodd" />
    <path
       stroke-miterlimit="8.0"
       d="M 416.93393,318.39267 H 520.83942 V 423.02261 H 416.93393 Z"
       id="path129"
       inkscape:connector-curvature="0"
       style="fill-rule:evenodd;stroke:#000000;stroke-width:2;stroke-linecap:butt;stroke-miterlimit:8" />
    <path
       d="M 447.30563,380.58765 H 443.79 l -6.8125,-8.09375 h -3.8125 v 8.09375 h -2.70312 v -20.35938 h 5.70312 q 1.84375,0 3.07813,0.25 1.23437,0.23438 2.21875,0.84375 1.09375,0.70313 1.71875,1.76563 0.625,1.04687 0.625,2.67187 0,2.20313 -1.10938,3.6875 -1.10937,1.48438 -3.04687,2.23438 z m -6.32813,-14.625 q 0,-0.875 -0.3125,-1.54688 -0.29687,-0.6875 -1.01562,-1.15625 -0.59375,-0.39062 -1.40625,-0.54687 -0.79688,-0.15625 -1.89063,-0.15625 h -3.1875 v 7.6875 h 2.73438 q 1.29687,0 2.25,-0.21875 0.95312,-0.23438 1.625,-0.85938 0.60937,-0.5625 0.90625,-1.3125 0.29687,-0.75 0.29687,-1.89062 z m 21.95313,-3.32813 h -10.29688 v 5.75 h 8.84375 v 2.40625 h -8.84375 v 9.79688 h -2.70312 v -20.35938 h 13 z m 29.7793,17.95313 h -3.51563 l -6.8125,-8.09375 h -3.8125 v 8.09375 h -2.70312 v -20.35938 h 5.70312 q 1.84375,0 3.07813,0.25 1.23437,0.23438 2.21875,0.84375 1.09375,0.70313 1.71875,1.76563 0.625,1.04687 0.625,2.67187 0,2.20313 -1.10938,3.6875 -1.10937,1.48438 -3.04687,2.23438 z m -6.32813,-14.625 q 0,-0.875 -0.3125,-1.54688 -0.29687,-0.6875 -1.01562,-1.15625 -0.59375,-0.39062 -1.40625,-0.54687 -0.79688,-0.15625 -1.89063,-0.15625 h -3.1875 v 7.6875 h 2.73438 q 1.29687,0 2.25,-0.21875 0.95312,-0.23438 1.625,-0.85938 0.60937,-0.5625 0.90625,-1.3125 0.29687,-0.75 0.29687,-1.89062 z m 21.14063,14.625 h -2.57813 v -1.59375 q -1.10937,0.95312 -2.3125,1.48437 -1.20312,0.53125 -2.60937,0.53125 -2.73438,0 -4.34375,-2.09375 -1.59375,-2.10937 -1.59375,-5.84375 0,-1.95312 0.54687,-3.46875 0.54688,-1.51562 1.5,-2.57812 0.92188,-1.04688 2.15625,-1.59375 1.25,-0.54688 2.57813,-0.54688 1.20312,0 2.125,0.26563 0.9375,0.25 1.95312,0.78125 v -6.625 h 2.57813 z m -2.57813,-3.76563 v -8.76562 q -1.03125,-0.45313 -1.85937,-0.625 -0.8125,-0.1875 -1.78125,-0.1875 -2.17188,0 -3.375,1.5 -1.20313,1.5 -1.20313,4.26562 0,2.71875 0.92188,4.14063 0.9375,1.40625 3,1.40625 1.09375,0 2.20312,-0.48438 1.125,-0.48437 2.09375,-1.25 z"
       id="path131"
       inkscape:connector-curvature="0"
       style="fill:#000000;fill-rule:nonzero" />
    <path
       d="m 548.3981,449.47934 -11.6272,42.3317 h -29.48321 l -11.62717,-42.3317 h 20.34757 l 5.39831,10.0448 3.73737,-10.0448 z"
       id="path133"
       inkscape:connector-curvature="0"
       style="fill:#ffffff;fill-rule:evenodd" />
    <path
       d="m 548.3981,449.47934 -11.6272,42.3317 h -29.48321 l -11.62717,-42.3317 h 20.34757 l 5.39831,10.0448 3.73737,-10.0448 z"
       id="path135"
       inkscape:connector-curvature="0"
       style="fill-rule:evenodd;stroke:#000000;stroke-width:2;stroke-linecap:butt;stroke-linejoin:round" />
    <path
       d="m 519.42114,483.29184 v -9.23438 h -9.21872 v -2.79687 h 9.21872 v -9.23438 h 2.71875 v 9.23438 h 9.21875 v 2.79687 h -9.21875 v 9.23438 z"
       id="path137"
       inkscape:connector-curvature="0"
       style="fill:#000000;fill-rule:nonzero" />
    <path
       d="m 582.6256,361.0039 16.32758,-11.01541 V 327.9576 L 582.6256,316.94216 Z"
       id="path139"
       inkscape:connector-curvature="0"
       style="fill:#ffffff;fill-rule:evenodd" />
    <path
       stroke-miterlimit="8.0"
       d="m 582.6256,361.0039 16.32758,-11.01541 V 327.9576 L 582.6256,316.94216 Z"
       id="path141"
       inkscape:connector-curvature="0"
       style="fill-rule:evenodd;stroke:#000000;stroke-width:2;stroke-linecap:butt;stroke-miterlimit:8" />
    <path
       d="m 581.28644,426.85043 16.32758,-11.01541 v -22.03089 l -16.32758,-11.01541 z"
       id="path143"
       inkscape:connector-curvature="0"
       style="fill:#ffffff;fill-rule:evenodd" />
    <path
       stroke-miterlimit="8.0"
       d="m 581.28644,426.85043 16.32758,-11.01541 v -22.03089 l -16.32758,-11.01541 z"
       id="path145"
       inkscape:connector-curvature="0"
       style="fill-rule:evenodd;stroke:#000000;stroke-width:2;stroke-linecap:butt;stroke-miterlimit:8" />
    <path
       d="M 715.10254,385.9164 H 916.77179"
       id="path147"
       inkscape:connector-curvature="0"
       style="fill:#000000;fill-opacity:0;fill-rule:evenodd" />
    <path
       d="M 715.10254,385.9164 H 916.77179"
       id="path149"
       inkscape:connector-curvature="0"
       style="fill-rule:evenodd;stroke:#30182b;stroke-width:1;stroke-linecap:butt;stroke-linejoin:round" />
    <path
       d="M 32,67.37152 H 491.0551"
       id="path151"
       inkscape:connector-curvature="0"
       style="fill:#000000;fill-opacity:0;fill-rule:evenodd" />
    <path
       d="M 32,67.37152 H 491.0551"
       id="path153"
       inkscape:connector-curvature="0"
       style="fill-rule:evenodd;stroke:#30182b;stroke-width:1;stroke-linecap:butt;stroke-linejoin:round" />
    <path
       d="M 490.77963,67.299385 V 240.11829"
       id="path155"
       inkscape:connector-curvature="0"
       style="fill:#000000;fill-opacity:0;fill-rule:evenodd" />
    <path
       d="M 490.77963,67.299385 V 240.11829"
       id="path157"
       inkscape:connector-curvature="0"
       style="fill-rule:evenodd;stroke:#30182b;stroke-width:1;stroke-linecap:butt;stroke-linejoin:round" />
    <path
       d="M 52.578568,93.30976 V 216.9633"
       id="path159"
       inkscape:connector-curvature="0"
       style="fill:#000000;fill-opacity:0;fill-rule:evenodd" />
    <path
       d="M 52.578568,93.30976 V 216.9633"
       id="path161"
       inkscape:connector-curvature="0"
       style="fill-rule:evenodd;stroke:#30182b;stroke-width:1;stroke-linecap:butt;stroke-linejoin:round" />
    <path
       d="M 86.48735,201.40457 H 67.684196"
       id="path163"
       inkscape:connector-curvature="0"
       style="fill:#000000;fill-opacity:0;fill-rule:evenodd" />
    <path
       d="M 86.48735,201.40457 H 67.684196"
       id="path165"
       inkscape:connector-curvature="0"
       style="fill-rule:evenodd;stroke:#30182b;stroke-width:1;stroke-linecap:butt;stroke-linejoin:round" />
    <path
       d="m 320.12296,27.028036 h 168.8819 v 47.968506 h -168.8819 z"
       id="path167"
       inkscape:connector-curvature="0"
       style="fill:#000000;fill-opacity:0;fill-rule:evenodd" />
    <path
       d="m 330.35733,57.65116 v -13.375 h 1.48437 v 1.25 q 0.53125,-0.734375 1.1875,-1.09375 0.67188,-0.375 1.625,-0.375 1.23438,0 2.17188,0.640625 0.95312,0.625 1.4375,1.796875 0.48437,1.15625 0.48437,2.546875 0,1.484375 -0.53125,2.671875 -0.53125,1.1875 -1.54687,1.828125 -1.01563,0.625 -2.14063,0.625 -0.8125,0 -1.46875,-0.34375 -0.65625,-0.34375 -1.0625,-0.875 v 4.703125 z m 1.48437,-8.484375 q 0,1.859375 0.75,2.765625 0.76563,0.890625 1.82813,0.890625 1.09375,0 1.875,-0.921875 0.78125,-0.9375 0.78125,-2.875 0,-1.84375 -0.76563,-2.765625 -0.75,-0.921875 -1.8125,-0.921875 -1.04687,0 -1.85937,0.984375 -0.79688,0.96875 -0.79688,2.84375 z m 15.51636,1.671875 1.6875,0.203125 q -0.40625,1.484375 -1.48437,2.3125 -1.07813,0.8125 -2.76563,0.8125 -2.125,0 -3.375,-1.296875 -1.23437,-1.3125 -1.23437,-3.671875 0,-2.453125 1.25,-3.796875 1.26562,-1.34375 3.26562,-1.34375 1.9375,0 3.15625,1.328125 1.23438,1.3125 1.23438,3.703125 0,0.15625 0,0.4375 h -7.21875 q 0.0937,1.59375 0.90625,2.453125 0.8125,0.84375 2.01562,0.84375 0.90625,0 1.54688,-0.46875 0.64062,-0.484375 1.01562,-1.515625 z m -5.39062,-2.65625 h 5.40625 q -0.10938,-1.21875 -0.625,-1.828125 -0.78125,-0.953125 -2.03125,-0.953125 -1.125,0 -1.90625,0.765625 -0.76563,0.75 -0.84375,2.015625 z m 9.14132,5.765625 V 44.27616 h 1.46875 v 1.375 q 1.0625,-1.59375 3.07813,-1.59375 0.875,0 1.60937,0.3125 0.73438,0.3125 1.09375,0.828125 0.375,0.5 0.51563,1.203125 0.0937,0.453125 0.0937,1.59375 v 5.953125 h -1.64063 V 48.05741 q 0,-1 -0.20312,-1.484375 -0.1875,-0.5 -0.67188,-0.796875 -0.48437,-0.296875 -1.14062,-0.296875 -1.04688,0 -1.8125,0.671875 -0.75,0.65625 -0.75,2.515625 v 5.28125 z m 16.64136,0 v -1.21875 q -0.90625,1.4375 -2.70312,1.4375 -1.15625,0 -2.125,-0.640625 -0.96875,-0.640625 -1.5,-1.78125 -0.53125,-1.140625 -0.53125,-2.625 0,-1.453125 0.48437,-2.625 0.48438,-1.1875 1.4375,-1.8125 0.96875,-0.625 2.17188,-0.625 0.875,0 1.54687,0.375 0.6875,0.359375 1.10938,0.953125 V 40.58866 h 1.64062 v 13.359375 z m -5.17187,-4.828125 q 0,1.859375 0.78125,2.78125 0.78125,0.921875 1.84375,0.921875 1.07812,0 1.82812,-0.875 0.75,-0.890625 0.75,-2.6875 0,-1.984375 -0.76562,-2.90625 -0.76563,-0.9375 -1.89063,-0.9375 -1.07812,0 -1.8125,0.890625 -0.73437,0.890625 -0.73437,2.8125 z m 9.73507,4.828125 v -1.875 h 1.875 v 1.875 z m 9.89786,0 V 44.27616 h 1.46875 v 1.46875 q 0.5625,-1.03125 1.03125,-1.359375 0.48438,-0.328125 1.0625,-0.328125 0.82813,0 1.6875,0.53125 l -0.5625,1.515625 q -0.60937,-0.359375 -1.20312,-0.359375 -0.54688,0 -0.96875,0.328125 -0.42188,0.328125 -0.60938,0.890625 -0.28125,0.875 -0.28125,1.921875 v 5.0625 z m 12.8533,-3.109375 1.6875,0.203125 q -0.40625,1.484375 -1.48437,2.3125 -1.07813,0.8125 -2.76563,0.8125 -2.125,0 -3.375,-1.296875 -1.23437,-1.3125 -1.23437,-3.671875 0,-2.453125 1.25,-3.796875 1.26562,-1.34375 3.26562,-1.34375 1.9375,0 3.15625,1.328125 1.23438,1.3125 1.23438,3.703125 0,0.15625 0,0.4375 h -7.21875 q 0.0937,1.59375 0.90625,2.453125 0.8125,0.84375 2.01562,0.84375 0.90625,0 1.54688,-0.46875 0.64062,-0.484375 1.01562,-1.515625 z m -5.39062,-2.65625 h 5.40625 q -0.10938,-1.21875 -0.625,-1.828125 -0.78125,-0.953125 -2.03125,-0.953125 -1.125,0 -1.90625,0.765625 -0.76563,0.75 -0.84375,2.015625 z m 9.14135,9.46875 v -13.375 h 1.48438 v 1.25 q 0.53125,-0.734375 1.1875,-1.09375 0.67187,-0.375 1.625,-0.375 1.23437,0 2.17187,0.640625 0.95313,0.625 1.4375,1.796875 0.48438,1.15625 0.48438,2.546875 0,1.484375 -0.53125,2.671875 -0.53125,1.1875 -1.54688,1.828125 -1.01562,0.625 -2.14062,0.625 -0.8125,0 -1.46875,-0.34375 -0.65625,-0.34375 -1.0625,-0.875 v 4.703125 z m 1.48438,-8.484375 q 0,1.859375 0.75,2.765625 0.76562,0.890625 1.82812,0.890625 1.09375,0 1.875,-0.921875 0.78125,-0.9375 0.78125,-2.875 0,-1.84375 -0.76562,-2.765625 -0.75,-0.921875 -1.8125,-0.921875 -1.04688,0 -1.85938,0.984375 -0.79687,0.96875 -0.79687,2.84375 z m 8.84445,4.78125 V 40.58866 h 1.64063 v 13.359375 z m 10.50421,-1.1875 q -0.92187,0.765625 -1.76562,1.09375 -0.82813,0.3125 -1.79688,0.3125 -1.59375,0 -2.45312,-0.78125 -0.85938,-0.78125 -0.85938,-1.984375 0,-0.71875 0.32813,-1.296875 0.32812,-0.59375 0.84375,-0.9375 0.53125,-0.359375 1.1875,-0.546875 0.46875,-0.125 1.45312,-0.25 1.98438,-0.234375 2.92188,-0.5625 0.0156,-0.34375 0.0156,-0.421875 0,-1 -0.46875,-1.421875 -0.625,-0.546875 -1.875,-0.546875 -1.15625,0 -1.70312,0.40625 -0.54688,0.40625 -0.8125,1.421875 l -1.60938,-0.21875 q 0.21875,-1.015625 0.71875,-1.640625 0.5,-0.640625 1.45313,-0.984375 0.95312,-0.34375 2.1875,-0.34375 1.25,0 2.01562,0.296875 0.78125,0.28125 1.14063,0.734375 0.375,0.4375 0.51562,1.109375 0.0781,0.421875 0.0781,1.515625 v 2.1875 q 0,2.28125 0.10937,2.890625 0.10938,0.59375 0.40625,1.15625 h -1.70312 q -0.26563,-0.515625 -0.32813,-1.1875 z m -0.14062,-3.671875 q -0.89063,0.375 -2.67188,0.625 -1.01562,0.140625 -1.4375,0.328125 -0.42187,0.1875 -0.65625,0.53125 -0.21875,0.34375 -0.21875,0.78125 0,0.65625 0.5,1.09375 0.5,0.4375 1.45313,0.4375 0.9375,0 1.67187,-0.40625 0.75,-0.421875 1.09375,-1.140625 0.26563,-0.5625 0.26563,-1.640625 z m 4.1257,8.578125 -0.1875,-1.53125 q 0.54687,0.140625 0.9375,0.140625 0.54687,0 0.875,-0.1875 0.32812,-0.171875 0.54687,-0.5 0.15625,-0.25 0.5,-1.21875 0.0469,-0.140625 0.14063,-0.40625 l -3.67188,-9.6875 h 1.76563 l 2.01562,5.59375 q 0.39063,1.078125 0.70313,2.25 0.28125,-1.125 0.67187,-2.203125 l 2.07813,-5.640625 h 1.64062 l -3.6875,9.828125 q -0.59375,1.609375 -0.92187,2.203125 -0.4375,0.8125 -1,1.1875 -0.5625,0.375 -1.34375,0.375 -0.48438,0 -1.0625,-0.203125 z m 14.79269,-3.71875 V 40.58866 h 5.04688 q 1.32812,0 2.03125,0.125 0.96875,0.171875 1.64062,0.640625 0.67188,0.453125 1.07813,1.28125 0.40625,0.828125 0.40625,1.828125 0,1.703125 -1.09375,2.890625 -1.07813,1.171875 -3.92188,1.171875 h -3.42187 v 5.421875 z m 1.76563,-7 h 3.45312 q 1.71875,0 2.4375,-0.640625 0.71875,-0.640625 0.71875,-1.796875 0,-0.84375 -0.42187,-1.4375 -0.42188,-0.59375 -1.125,-0.78125 -0.4375,-0.125 -1.64063,-0.125 h -3.42187 z m 20.2092,2.3125 1.76562,0.453125 q -0.5625,2.171875 -2,3.328125 -1.4375,1.140625 -3.53125,1.140625 -2.15625,0 -3.51562,-0.875 -1.34375,-0.890625 -2.0625,-2.546875 -0.70313,-1.671875 -0.70313,-3.59375 0,-2.078125 0.79688,-3.625 0.79687,-1.5625 2.26562,-2.359375 1.48438,-0.8125 3.25,-0.8125 2,0 3.35938,1.015625 1.375,1.015625 1.90625,2.875 l -1.73438,0.40625 q -0.46875,-1.453125 -1.35937,-2.109375 -0.875,-0.671875 -2.20313,-0.671875 -1.54687,0 -2.57812,0.734375 -1.03125,0.734375 -1.45313,1.984375 -0.42187,1.234375 -0.42187,2.5625 0,1.703125 0.5,2.96875 0.5,1.265625 1.54687,1.90625 1.04688,0.625 2.26563,0.625 1.48437,0 2.51562,-0.859375 1.03125,-0.859375 1.39063,-2.546875 z"
       id="path169"
       inkscape:connector-curvature="0"
       style="fill:#000000;fill-rule:nonzero" />
    <path
       d="m 596.1756,243.46371 h 117.44885 v 47.96851 H 596.1756 Z"
       id="path171"
       inkscape:connector-curvature="0"
       style="fill:#000000;fill-opacity:0;fill-rule:evenodd" />
    <path
       d="m 606.39435,270.3837 v -9.67188 h 1.46875 v 1.46875 q 0.5625,-1.03125 1.03125,-1.35937 0.48438,-0.32813 1.0625,-0.32813 0.82813,0 1.6875,0.53125 l -0.5625,1.51563 q -0.60937,-0.35938 -1.20312,-0.35938 -0.54688,0 -0.96875,0.32813 -0.42188,0.32812 -0.60938,0.89062 -0.28125,0.875 -0.28125,1.92188 v 5.0625 z m 12.85333,-3.10938 1.6875,0.20313 q -0.40625,1.48437 -1.48437,2.3125 -1.07813,0.8125 -2.76563,0.8125 -2.125,0 -3.375,-1.29688 -1.23437,-1.3125 -1.23437,-3.67187 0,-2.45313 1.25,-3.79688 1.26562,-1.34375 3.26562,-1.34375 1.9375,0 3.15625,1.32813 1.23438,1.3125 1.23438,3.70312 0,0.15625 0,0.4375 h -7.21875 q 0.0937,1.59375 0.90625,2.45313 0.8125,0.84375 2.01562,0.84375 0.90625,0 1.54688,-0.46875 0.64062,-0.48438 1.01562,-1.51563 z m -5.39062,-2.65625 h 5.40625 q -0.10938,-1.21875 -0.625,-1.82812 -0.78125,-0.95313 -2.03125,-0.95313 -1.125,0 -1.90625,0.76563 -0.76563,0.75 -0.84375,2.01562 z m 8.82879,6.5625 1.59375,0.23438 q 0.10938,0.75 0.5625,1.07812 0.60938,0.45313 1.67188,0.45313 1.14062,0 1.75,-0.45313 0.625,-0.45312 0.84375,-1.26562 0.125,-0.5 0.10937,-2.10938 -1.0625,1.26563 -2.67187,1.26563 -2,0 -3.09375,-1.4375 -1.09375,-1.4375 -1.09375,-3.45313 0,-1.39062 0.5,-2.5625 0.51562,-1.17187 1.45312,-1.79687 0.95313,-0.64063 2.25,-0.64063 1.70313,0 2.8125,1.375 v -1.15625 h 1.51563 v 8.35938 q 0,2.26562 -0.46875,3.20312 -0.45313,0.9375 -1.45313,1.48438 -0.98437,0.54687 -2.45312,0.54687 -1.71875,0 -2.79688,-0.78125 -1.0625,-0.76562 -1.03125,-2.34375 z m 1.35938,-5.8125 q 0,1.90625 0.75,2.78125 0.76562,0.875 1.90625,0.875 1.125,0 1.89062,-0.85937 0.76563,-0.875 0.76563,-2.73438 0,-1.78125 -0.79688,-2.67187 -0.78125,-0.90625 -1.89062,-0.90625 -1.09375,0 -1.85938,0.89062 -0.76562,0.875 -0.76562,2.625 z m 9.78198,5.01563 v -1.875 h 1.875 v 1.875 z m 11.41351,0 h -1.51562 v -13.35938 h 1.64062 v 4.76563 q 1.04688,-1.29688 2.65625,-1.29688 0.89063,0 1.6875,0.35938 0.79688,0.35937 1.3125,1.01562 0.51563,0.64063 0.79688,1.5625 0.29687,0.92188 0.29687,1.96875 0,2.48438 -1.23437,3.84375 -1.21875,1.35938 -2.95313,1.35938 -1.70312,0 -2.6875,-1.4375 z m -0.0156,-4.90625 q 0,1.73437 0.48437,2.51562 0.76563,1.26563 2.09375,1.26563 1.07813,0 1.85938,-0.9375 0.78125,-0.9375 0.78125,-2.78125 0,-1.89063 -0.75,-2.79688 -0.75,-0.90625 -1.82813,-0.90625 -1.0625,0 -1.85937,0.9375 -0.78125,0.9375 -0.78125,2.70313 z m 8.81317,8.625 -0.1875,-1.53125 q 0.54687,0.14062 0.9375,0.14062 0.54687,0 0.875,-0.1875 0.32812,-0.17187 0.54687,-0.5 0.15625,-0.25 0.5,-1.21875 0.0469,-0.14062 0.14063,-0.40625 l -3.67188,-9.6875 h 1.76563 l 2.01562,5.59375 q 0.39063,1.07813 0.70313,2.25 0.28125,-1.125 0.67187,-2.20312 l 2.07813,-5.64063 h 1.64062 l -3.6875,9.82813 q -0.59375,1.60937 -0.92187,2.20312 -0.4375,0.8125 -1,1.1875 -0.5625,0.375 -1.34375,0.375 -0.48438,0 -1.0625,-0.20312 z m 9.40625,-0.0156 v -13.375 h 1.48437 v 1.25 q 0.53125,-0.73437 1.1875,-1.09375 0.67188,-0.375 1.625,-0.375 1.23438,0 2.17188,0.64063 0.95312,0.625 1.4375,1.79687 0.48437,1.15625 0.48437,2.54688 0,1.48437 -0.53125,2.67187 -0.53125,1.1875 -1.54687,1.82813 -1.01563,0.625 -2.14063,0.625 -0.8125,0 -1.46875,-0.34375 -0.65625,-0.34375 -1.0625,-0.875 v 4.70312 z m 1.48437,-8.48437 q 0,1.85937 0.75,2.76562 0.76563,0.89063 1.82813,0.89063 1.09375,0 1.875,-0.92188 0.78125,-0.9375 0.78125,-2.875 0,-1.84375 -0.76563,-2.76562 -0.75,-0.92188 -1.8125,-0.92188 -1.04687,0 -1.85937,0.98438 -0.79688,0.96875 -0.79688,2.84375 z m 9.34449,4.78125 v -1.875 h 1.875 v 1.875 z"
       id="path173"
       inkscape:connector-curvature="0"
       style="fill:#000000;fill-rule:nonzero" />
    <path
       d="M 755.3426,332.13504 H 859.24812 V 436.76495 H 755.3426 Z"
       id="path175"
       inkscape:connector-curvature="0"
       style="fill:#ffffff;fill-rule:evenodd" />
    <path
       stroke-miterlimit="8.0"
       d="M 755.3426,332.13504 H 859.24812 V 436.76495 H 755.3426 Z"
       id="path177"
       inkscape:connector-curvature="0"
       style="fill-rule:evenodd;stroke:#000000;stroke-width:2;stroke-linecap:butt;stroke-miterlimit:8" />
    <path
       d="m 784.35394,394.33 h -3.51563 l -6.8125,-8.09375 h -3.8125 V 394.33 h -2.70312 v -20.35938 h 5.70312 q 1.84375,0 3.07813,0.25 1.23437,0.23438 2.21875,0.84375 1.09375,0.70313 1.71875,1.76563 0.625,1.04687 0.625,2.67187 0,2.20313 -1.10938,3.6875 -1.10937,1.48438 -3.04687,2.23438 z m -6.32813,-14.625 q 0,-0.875 -0.3125,-1.54688 -0.29687,-0.6875 -1.01562,-1.15625 -0.59375,-0.39062 -1.40625,-0.54687 -0.79688,-0.15625 -1.89063,-0.15625 h -3.1875 v 7.6875 h 2.73438 q 1.29687,0 2.25,-0.21875 0.95312,-0.23438 1.625,-0.85938 0.60937,-0.5625 0.90625,-1.3125 0.29687,-0.75 0.29687,-1.89062 z m 21.95313,-3.32813 h -10.29688 v 5.75 h 8.84375 v 2.40625 h -8.84375 V 394.33 h -2.70312 v -20.35938 h 13 z m 36.62305,-2.40625 -5.28125,20.35938 h -3.04688 l -4.28125,-16.90625 -4.1875,16.90625 h -2.98437 l -5.375,-20.35938 h 2.76562 l 4.28125,16.92188 4.21875,-16.92188 h 2.73438 l 4.26562,17.09375 4.25,-17.09375 z m 13.32617,7.89063 h -0.14063 q -0.57812,-0.14063 -1.125,-0.20313 -0.53125,-0.0625 -1.26562,-0.0625 -1.1875,0 -2.29688,0.53125 -1.10937,0.53125 -2.14062,1.35938 V 394.33 h -2.5625 v -15.26563 h 2.5625 v 2.25 q 1.53125,-1.23437 2.70312,-1.73437 1.17188,-0.51563 2.39063,-0.51563 0.67187,0 0.96875,0.0312 0.29687,0.0312 0.90625,0.125 z"
       id="path179"
       inkscape:connector-curvature="0"
       style="fill:#000000;fill-rule:nonzero" />
    <path
       d="m 52.46729,94.85623 h 603.0551"
       id="path181"
       inkscape:connector-curvature="0"
       style="fill:#000000;fill-opacity:0;fill-rule:evenodd" />
    <path
       d="m 52.46729,94.85623 h 603.0551"
       id="path183"
       inkscape:connector-curvature="0"
       style="fill-rule:evenodd;stroke:#30182b;stroke-width:1;stroke-linecap:butt;stroke-linejoin:round" />
    <path
       d="M 309.23315,285.68243 H 343.4064"
       id="path185"
       inkscape:connector-curvature="0"
       style="fill:#000000;fill-opacity:0;fill-rule:evenodd" />
    <path
       d="M 309.23315,285.68243 H 343.4064"
       id="path187"
       inkscape:connector-curvature="0"
       style="fill-rule:evenodd;stroke:#30182b;stroke-width:1;stroke-linecap:butt;stroke-linejoin:round" />
    <path
       d="M 343.9861,170.56091 V 285.74203"
       id="path189"
       inkscape:connector-curvature="0"
       style="fill:#000000;fill-opacity:0;fill-rule:evenodd" />
    <path
       d="M 343.9861,170.56091 V 285.74203"
       id="path191"
       inkscape:connector-curvature="0"
       style="fill-rule:evenodd;stroke:#30182b;stroke-width:1;stroke-linecap:butt;stroke-linejoin:round" />
    <path
       d="m 352.0249,204.0579 v 36.06299"
       id="path193"
       inkscape:connector-curvature="0"
       style="fill:#000000;fill-opacity:0;fill-rule:evenodd" />
    <path
       d="m 352.0249,204.0579 v 36.06299"
       id="path195"
       inkscape:connector-curvature="0"
       style="fill-rule:evenodd;stroke:#30182b;stroke-width:1;stroke-linecap:butt;stroke-linejoin:round" />
    <path
       d="m 387.25366,189.45665 h 267.4961"
       id="path197"
       inkscape:connector-curvature="0"
       style="fill:#000000;fill-opacity:0;fill-rule:evenodd" />
    <path
       d="m 387.25366,189.45665 h 267.4961"
       id="path199"
       inkscape:connector-curvature="0"
       style="fill-rule:evenodd;stroke:#30182b;stroke-width:1;stroke-linecap:butt;stroke-linejoin:round" />
    <path
       d="m 514.15546,60.13503 h 132.40948 v 47.9685 H 514.15546 Z"
       id="path201"
       inkscape:connector-curvature="0"
       style="fill:#000000;fill-opacity:0;fill-rule:evenodd" />
    <path
       d="M 525.88983,87.05503 H 524.3742 V 73.695655 h 1.64063 v 4.765625 q 1.04687,-1.296875 2.65625,-1.296875 0.89062,0 1.6875,0.359375 0.79687,0.359375 1.3125,1.015625 0.51562,0.640625 0.79687,1.5625 0.29688,0.921875 0.29688,1.96875 0,2.484375 -1.23438,3.84375 -1.21875,1.359375 -2.95312,1.359375 -1.70313,0 -2.6875,-1.4375 z m -0.0156,-4.90625 q 0,1.734375 0.48438,2.515625 0.76562,1.265625 2.09375,1.265625 1.07812,0 1.85937,-0.9375 0.78125,-0.9375 0.78125,-2.78125 0,-1.890625 -0.75,-2.796875 -0.75,-0.90625 -1.82812,-0.90625 -1.0625,0 -1.85938,0.9375 -0.78125,0.9375 -0.78125,2.703125 z m 8.87574,4.90625 v -9.671875 h 1.46875 v 1.46875 q 0.5625,-1.03125 1.03125,-1.359375 0.48437,-0.328125 1.0625,-0.328125 0.82812,0 1.6875,0.53125 l -0.5625,1.515625 q -0.60938,-0.359375 -1.20313,-0.359375 -0.54687,0 -0.96875,0.328125 -0.42187,0.328125 -0.60937,0.890625 -0.28125,0.875 -0.28125,1.921875 v 5.0625 z m 5.65149,0 v -1.875 h 1.875 v 1.875 z m 13.49157,-1.46875 0.23438,1.453125 q -0.6875,0.140625 -1.23438,0.140625 -0.89062,0 -1.39062,-0.28125 -0.48438,-0.28125 -0.6875,-0.734375 -0.20313,-0.46875 -0.20313,-1.9375 V 78.64878 h -1.20312 v -1.265625 h 1.20312 V 74.99253 l 1.625,-0.984375 v 3.375 h 1.65625 v 1.265625 h -1.65625 v 5.671875 q 0,0.6875 0.0781,0.890625 0.0937,0.203125 0.28125,0.328125 0.20312,0.109375 0.57812,0.109375 0.26563,0 0.71875,-0.0625 z m 7.91773,0.28125 q -0.92188,0.765625 -1.76563,1.09375 -0.82812,0.3125 -1.79687,0.3125 -1.59375,0 -2.45313,-0.78125 -0.85937,-0.78125 -0.85937,-1.984375 0,-0.71875 0.32812,-1.296875 0.32813,-0.59375 0.84375,-0.9375 0.53125,-0.359375 1.1875,-0.546875 0.46875,-0.125 1.45313,-0.25 1.98437,-0.234375 2.92187,-0.5625 0.0156,-0.34375 0.0156,-0.421875 0,-1 -0.46875,-1.421875 -0.625,-0.546875 -1.875,-0.546875 -1.15625,0 -1.70313,0.40625 -0.54687,0.40625 -0.8125,1.421875 l -1.60937,-0.21875 q 0.21875,-1.015625 0.71875,-1.640625 0.5,-0.640625 1.45312,-0.984375 0.95313,-0.34375 2.1875,-0.34375 1.25,0 2.01563,0.296875 0.78125,0.28125 1.14062,0.734375 0.375,0.4375 0.51563,1.109375 0.0781,0.421875 0.0781,1.515625 v 2.1875 q 0,2.28125 0.10938,2.890625 0.10937,0.59375 0.40625,1.15625 h -1.70313 q -0.26562,-0.515625 -0.32812,-1.1875 z m -0.14063,-3.671875 q -0.89062,0.375 -2.67187,0.625 -1.01563,0.140625 -1.4375,0.328125 -0.42188,0.1875 -0.65625,0.53125 -0.21875,0.34375 -0.21875,0.78125 0,0.65625 0.5,1.09375 0.5,0.4375 1.45312,0.4375 0.9375,0 1.67188,-0.40625 0.75,-0.421875 1.09375,-1.140625 0.26562,-0.5625 0.26562,-1.640625 z m 4.18817,4.859375 v -9.671875 h 1.46875 v 1.46875 q 0.5625,-1.03125 1.03125,-1.359375 0.48438,-0.328125 1.0625,-0.328125 0.82813,0 1.6875,0.53125 l -0.5625,1.515625 q -0.60937,-0.359375 -1.20312,-0.359375 -0.54688,0 -0.96875,0.328125 -0.42188,0.328125 -0.60938,0.890625 -0.28125,0.875 -0.28125,1.921875 v 5.0625 z m 5.91584,0.796875 1.59375,0.234375 q 0.10937,0.75 0.5625,1.078125 0.60937,0.453125 1.67187,0.453125 1.14063,0 1.75,-0.453125 0.625,-0.453125 0.84375,-1.265625 0.125,-0.5 0.10938,-2.109375 -1.0625,1.265625 -2.67188,1.265625 -2,0 -3.09375,-1.4375 -1.09375,-1.4375 -1.09375,-3.453125 0,-1.390625 0.5,-2.5625 0.51563,-1.171875 1.45313,-1.796875 0.95312,-0.640625 2.25,-0.640625 1.70312,0 2.8125,1.375 v -1.15625 h 1.51562 v 8.359375 q 0,2.265625 -0.46875,3.203125 -0.45312,0.9375 -1.45312,1.484375 -0.98438,0.546875 -2.45313,0.546875 -1.71875,0 -2.79687,-0.78125 -1.0625,-0.765625 -1.03125,-2.34375 z m 1.35937,-5.8125 q 0,1.90625 0.75,2.78125 0.76563,0.875 1.90625,0.875 1.125,0 1.89063,-0.859375 0.76562,-0.875 0.76562,-2.734375 0,-1.78125 -0.79687,-2.671875 -0.78125,-0.90625 -1.89063,-0.90625 -1.09375,0 -1.85937,0.890625 -0.76563,0.875 -0.76563,2.625 z m 15.95386,1.90625 1.6875,0.203125 q -0.40625,1.484375 -1.48438,2.3125 -1.07812,0.8125 -2.76562,0.8125 -2.125,0 -3.375,-1.296875 -1.23438,-1.3125 -1.23438,-3.671875 0,-2.453125 1.25,-3.796875 1.26563,-1.34375 3.26563,-1.34375 1.9375,0 3.15625,1.328125 1.23437,1.3125 1.23437,3.703125 0,0.15625 0,0.4375 h -7.21875 q 0.0937,1.59375 0.90625,2.453125 0.8125,0.84375 2.01563,0.84375 0.90625,0 1.54687,-0.46875 0.64063,-0.484375 1.01563,-1.515625 z m -5.39063,-2.65625 h 5.40625 q -0.10937,-1.21875 -0.625,-1.828125 -0.78125,-0.953125 -2.03125,-0.953125 -1.125,0 -1.90625,0.765625 -0.76562,0.75 -0.84375,2.015625 z m 12.71942,4.296875 0.23438,1.453125 q -0.6875,0.140625 -1.23438,0.140625 -0.89062,0 -1.39062,-0.28125 -0.48438,-0.28125 -0.6875,-0.734375 -0.20313,-0.46875 -0.20313,-1.9375 V 78.64878 h -1.20312 v -1.265625 h 1.20312 V 74.99253 l 1.625,-0.984375 v 3.375 h 1.65625 v 1.265625 h -1.65625 v 5.671875 q 0,0.6875 0.0781,0.890625 0.0937,0.203125 0.28125,0.328125 0.20312,0.109375 0.57812,0.109375 0.26563,0 0.71875,-0.0625 z"
       id="path203"
       inkscape:connector-curvature="0"
       style="fill:#000000;fill-rule:nonzero" />
    <path
       d="M 33.51567,67.299385 V 237.63011"
       id="path205"
       inkscape:connector-curvature="0"
       style="fill:#000000;fill-opacity:0;fill-rule:evenodd" />
    <path
       d="M 33.51567,67.299385 V 237.63011"
       id="path207"
       inkscape:connector-curvature="0"
       style="fill-rule:evenodd;stroke:#30182b;stroke-width:1;stroke-linecap:butt;stroke-linejoin:round" />
    <path
       d="M 88.07976,216.94136 H 52.48921"
       id="path209"
       inkscape:connector-curvature="0"
       style="fill:#000000;fill-opacity:0;fill-rule:evenodd" />
    <path
       d="M 88.07976,216.94136 H 52.48921"
       id="path211"
       inkscape:connector-curvature="0"
       style="fill-rule:evenodd;stroke:#30182b;stroke-width:1;stroke-linecap:butt;stroke-linejoin:round" />
    <path
       d="m 343.3952,170.90808 h 38.83462"
       id="path213"
       inkscape:connector-curvature="0"
       style="fill:#000000;fill-opacity:0;fill-rule:evenodd" />
    <path
       d="m 343.3952,170.90808 h 38.83462"
       id="path215"
       inkscape:connector-curvature="0"
       style="fill-rule:evenodd;stroke:#30182b;stroke-width:1;stroke-linecap:butt;stroke-linejoin:round" />
    <path
       d="m 352.0249,203.54617 h 38.83466"
       id="path217"
       inkscape:connector-curvature="0"
       style="fill:#000000;fill-opacity:0;fill-rule:evenodd" />
    <path
       d="m 352.0249,203.54617 h 38.83466"
       id="path219"
       inkscape:connector-curvature="0"
       style="fill-rule:evenodd;stroke:#30182b;stroke-width:1;stroke-linecap:butt;stroke-linejoin:round" />
    <path
       d="m 362.33496,156.63371 34.16583,13.66193 v 34.64274 l -34.16583,13.66193 v -23.90837 l 8.10715,-6.34305 -8.10715,-4.39133 z"
       id="path221"
       inkscape:connector-curvature="0"
       style="fill:#ffffff;fill-rule:evenodd" />
    <path
       d="m 362.33496,156.63371 34.16583,13.66193 v 34.64274 l -34.16583,13.66193 v -23.90837 l 8.10715,-6.34305 -8.10715,-4.39133 z"
       id="path223"
       inkscape:connector-curvature="0"
       style="fill-rule:evenodd;stroke:#000000;stroke-width:2;stroke-linecap:butt;stroke-linejoin:round" />
    <path
       d="m 387.5537,189.54887 h -6.03125 v 6.03125 h -1.82813 v -6.03125 h -6.03125 v -1.76563 h 6.03125 v -6.03125 h 1.82813 v 6.03125 h 6.03125 z"
       id="path225"
       inkscape:connector-curvature="0"
       style="fill:#000000;fill-rule:nonzero" />
    <path
       d="M 654.8019,95.041084 V 189.46627"
       id="path227"
       inkscape:connector-curvature="0"
       style="fill:#000000;fill-opacity:0;fill-rule:evenodd" />
    <path
       d="M 654.8019,95.041084 V 189.46627"
       id="path229"
       inkscape:connector-curvature="0"
       style="fill-rule:evenodd;stroke:#30182b;stroke-width:1;stroke-linecap:butt;stroke-linejoin:round" />
    <path
       d="M 80.931175,237.5549 H 33.340622"
       id="path231"
       inkscape:connector-curvature="0"
       style="fill:#000000;fill-opacity:0;fill-rule:evenodd" />
    <path
       d="M 80.931175,237.5549 H 33.340622"
       id="path233"
       inkscape:connector-curvature="0"
       style="fill-rule:evenodd;stroke:#30182b;stroke-width:1;stroke-linecap:butt;stroke-linejoin:round" />
    <path
       d="m 68.66001,123.31481 v 78.17322"
       id="path235"
       inkscape:connector-curvature="0"
       style="fill:#000000;fill-opacity:0;fill-rule:evenodd" />
    <path
       d="m 68.66001,123.31481 v 78.17322"
       id="path237"
       inkscape:connector-curvature="0"
       style="fill-rule:evenodd;stroke:#30182b;stroke-width:1;stroke-linecap:butt;stroke-linejoin:round" />
    <path
       d="m 242.7129,273.50235 h 79.43309 V 456.27399 H 242.7129 Z"
       id="path239"
       inkscape:connector-curvature="0"
       style="fill:#ffffff;fill-rule:evenodd" />
    <path
       stroke-miterlimit="8.0"
       d="m 242.7129,273.50235 h 79.43309 V 456.27399 H 242.7129 Z"
       id="path241"
       inkscape:connector-curvature="0"
       style="fill-rule:evenodd;stroke:#000000;stroke-width:2;stroke-linecap:butt;stroke-miterlimit:8" />
    <path
       d="m 275.94604,364.6119 q 0,2.76562 -1.21875,5.03125 -1.20313,2.25 -3.21875,3.5 -1.39063,0.85937 -3.10938,1.25 -1.71875,0.375 -4.51562,0.375 h -5.14063 v -20.35938 h 5.09375 q 2.96875,0 4.71875,0.4375 1.76563,0.42188 2.98438,1.17188 2.07812,1.29687 3.23437,3.46875 1.17188,2.15625 1.17188,5.125 z m -2.82813,-0.0469 q 0,-2.39062 -0.84375,-4.03125 -0.82812,-1.64062 -2.48437,-2.57812 -1.20313,-0.6875 -2.5625,-0.95313 -1.34375,-0.26562 -3.23438,-0.26562 h -2.54687 V 372.44 h 2.54687 q 1.95313,0 3.40625,-0.28125 1.46875,-0.29687 2.67188,-1.0625 1.53125,-0.98437 2.28125,-2.5625 0.76562,-1.59375 0.76562,-3.96875 z m 19.77735,2.82813 h -11.25 q 0,1.40625 0.42187,2.45312 0.42188,1.04688 1.15625,1.71875 0.71875,0.65625 1.6875,0.98438 0.98438,0.32812 2.15625,0.32812 1.5625,0 3.14063,-0.60937 1.57812,-0.625 2.25,-1.23438 h 0.14062 v 2.79688 q -1.29687,0.54687 -2.65625,0.92187 -1.35937,0.375 -2.84375,0.375 -3.79687,0 -5.9375,-2.0625 -2.125,-2.0625 -2.125,-5.84375 0,-3.75 2.03125,-5.95312 2.04688,-2.20313 5.39063,-2.20313 3.09375,0 4.76562,1.8125 1.67188,1.79688 1.67188,5.125 z m -2.5,-1.96875 q -0.0156,-2.01563 -1.03125,-3.125 -1,-1.10938 -3.04688,-1.10938 -2.0625,0 -3.29687,1.21875 -1.21875,1.21875 -1.375,3.01563 z m 17.69531,8.39062 q -1.29687,0.60938 -2.45312,0.95313 -1.14063,0.34375 -2.45313,0.34375 -1.64062,0 -3.03125,-0.48438 -1.375,-0.48437 -2.35937,-1.46875 -1,-0.98437 -1.54688,-2.48437 -0.54687,-1.51563 -0.54687,-3.51563 0,-3.75 2.04687,-5.875 2.0625,-2.14062 5.4375,-2.14062 1.3125,0 2.57813,0.375 1.26562,0.35937 2.32812,0.89062 v 2.85938 h -0.14062 q -1.17188,-0.92188 -2.42188,-1.40625 -1.25,-0.5 -2.45312,-0.5 -2.1875,0 -3.45313,1.48437 -1.25,1.46875 -1.25,4.3125 0,2.75 1.23438,4.23438 1.23437,1.48437 3.46875,1.48437 0.78125,0 1.59375,-0.20312 0.8125,-0.20313 1.45312,-0.53125 0.5625,-0.28125 1.04688,-0.60938 0.5,-0.32812 0.78125,-0.54687 h 0.14062 z"
       id="path243"
       inkscape:connector-curvature="0"
       style="fill:#000000;fill-rule:nonzero" />
    <path
       d="m 87.664185,175.63902 v 31.02362"
       id="path245"
       inkscape:connector-curvature="0"
       style="fill:#000000;fill-opacity:0;fill-rule:evenodd" />
    <path
       d="m 87.664185,175.63902 v 31.02362"
       id="path247"
       inkscape:connector-curvature="0"
       style="fill-rule:evenodd;stroke:#30182b;stroke-width:1;stroke-linecap:butt;stroke-linejoin:round" />
    <path
       d="M 99.35978,189.38138 V 220.405"
       id="path249"
       inkscape:connector-curvature="0"
       style="fill:#000000;fill-opacity:0;fill-rule:evenodd" />
    <path
       d="M 99.35978,189.38138 V 220.405"
       id="path251"
       inkscape:connector-curvature="0"
       style="fill-rule:evenodd;stroke:#30182b;stroke-width:1;stroke-linecap:butt;stroke-linejoin:round" />
    <path
       d="m 99.35978,258.09314 v 31.02365"
       id="path253"
       inkscape:connector-curvature="0"
       style="fill:#000000;fill-opacity:0;fill-rule:evenodd" />
    <path
       d="m 99.35978,258.09314 v 31.02365"
       id="path255"
       inkscape:connector-curvature="0"
       style="fill-rule:evenodd;stroke:#30182b;stroke-width:1;stroke-linecap:butt;stroke-linejoin:round" />
    <path
       d="m 77.34491,291.9853 29.80343,-26.16394 V 213.49345 L 77.34491,187.32949 Z"
       id="path257"
       inkscape:connector-curvature="0"
       style="fill:#ffffff;fill-rule:evenodd" />
    <path
       stroke-miterlimit="8.0"
       d="m 77.34491,291.9853 29.80343,-26.16394 V 213.49345 L 77.34491,187.32949 Z"
       id="path259"
       inkscape:connector-curvature="0"
       style="fill-rule:evenodd;stroke:#000000;stroke-width:2;stroke-linecap:butt;stroke-miterlimit:8" />
    <path
       d="m 73.546486,199.65958 h 37.019444 v 78.98715 H 73.546486 Z"
       id="path261"
       inkscape:connector-curvature="0"
       style="fill:#000000;fill-opacity:0;fill-rule:evenodd" />
    <path
       d="m 84.40586,231.69957 v -17.1875 h 6.46875 q 1.71875,0 2.625,0.17187 1.265625,0.20313 2.109375,0.79688 0.859375,0.59375 1.375,1.67187 0.53125,1.0625 0.53125,2.32813 0,2.20312 -1.40625,3.71875 -1.390625,1.51562 -5.03125,1.51562 h -4.40625 v 6.98438 z m 2.265625,-9.01563 h 4.4375 q 2.203125,0 3.125,-0.8125 0.9375,-0.82812 0.9375,-2.3125 0,-1.07812 -0.546875,-1.84375 -0.546875,-0.76562 -1.4375,-1.01562 -0.578125,-0.15625 -2.125,-0.15625 h -4.390625 z"
       id="path263"
       inkscape:connector-curvature="0"
       style="fill:#000000;fill-rule:nonzero" />
    <path
       d="m 96.65586,254.66832 2.28125,0.57812 q -0.71875,2.7969 -2.578125,4.28127 -1.859375,1.46875 -4.546875,1.46875 -2.765625,0 -4.515625,-1.125 -1.734375,-1.14062 -2.640625,-3.28125 -0.90625,-2.15627 -0.90625,-4.60939 0,-2.6875 1.015625,-4.6875 1.03125,-2 2.921875,-3.03125 1.890625,-1.03125 4.171875,-1.03125 2.578125,0 4.328125,1.3125 1.765625,1.3125 2.453125,3.6875 l -2.234375,0.53125 q -0.609375,-1.875 -1.75,-2.73438 -1.125,-0.85937 -2.84375,-0.85937 -1.984375,0 -3.3125,0.95312 -1.328125,0.95313 -1.875,2.54688 -0.53125,1.59375 -0.53125,3.29687 0,2.1875 0.625,3.82813 0.640625,1.64064 1.984375,2.45314 1.359375,0.79688 2.921875,0.79688 1.921875,0 3.234375,-1.09375 1.328125,-1.10938 1.796875,-3.28127 z"
       id="path265"
       inkscape:connector-curvature="0"
       style="fill:#000000;fill-rule:nonzero" />
    <path
       d="m 387.61053,306.0232 h 38.83462 v 104.62994 h -38.83462 z"
       id="path267"
       inkscape:connector-curvature="0"
       style="fill:#000000;fill-opacity:0;fill-rule:evenodd" />
    <path
       d="M 398.01678,339.73758 V 324.4407 h 1.70312 v 1.4375 q 0.60938,-0.84375 1.35938,-1.26562 0.76562,-0.42188 1.85937,-0.42188 1.40625,0 2.48438,0.73438 1.09375,0.71875 1.64062,2.04687 0.54688,1.32813 0.54688,2.92188 0,1.6875 -0.60938,3.04687 -0.59375,1.35938 -1.76562,2.09375 -1.15625,0.71875 -2.4375,0.71875 -0.9375,0 -1.6875,-0.39062 -0.73438,-0.40625 -1.21875,-1 v 5.375 z m 1.70312,-9.70313 q 0,2.14063 0.85938,3.15625 0.85937,1.01563 2.09375,1.01563 1.25,0 2.14062,-1.04688 0.89063,-1.0625 0.89063,-3.28125 0,-2.10937 -0.875,-3.15625 -0.85938,-1.0625 -2.07813,-1.0625 -1.1875,0 -2.10937,1.125 -0.92188,1.10938 -0.92188,3.25 z"
       id="path269"
       inkscape:connector-curvature="0"
       style="fill:#000000;fill-rule:nonzero" />
    <path
       d="m 405.5949,357.9407 1.92187,0.23437 q -0.45312,1.70313 -1.6875,2.64063 -1.23437,0.9375 -3.17187,0.9375 -2.42188,0 -3.84375,-1.48438 -1.42188,-1.5 -1.42188,-4.20312 0,-2.79688 1.4375,-4.32813 1.4375,-1.54687 3.73438,-1.54687 2.21875,0 3.60937,1.51562 1.40625,1.5 1.40625,4.25 0,0.15625 0,0.5 h -8.25 q 0.10938,1.8125 1.03125,2.78125 0.92188,0.96875 2.3125,0.96875 1.03125,0 1.75,-0.53125 0.73438,-0.54687 1.17188,-1.73437 z m -6.15625,-3.03125 h 6.17187 q -0.125,-1.39063 -0.70312,-2.09375 -0.90625,-1.07813 -2.32813,-1.07813 -1.29687,0 -2.17187,0.85938 -0.875,0.85937 -0.96875,2.3125 z"
       id="path271"
       inkscape:connector-curvature="0"
       style="fill:#000000;fill-rule:nonzero" />
    <path
       d="m 398.01678,387.5032 v -11.0625 h 1.6875 v 1.57812 q 1.21875,-1.82812 3.51562,-1.82812 1,0 1.84375,0.35937 0.84375,0.35938 1.25,0.95313 0.42188,0.57812 0.59375,1.375 0.0937,0.51562 0.0937,1.82812 v 6.79688 h -1.875 v -6.73438 q 0,-1.14062 -0.21875,-1.70312 -0.21875,-0.57813 -0.78125,-0.90625 -0.54687,-0.34375 -1.29687,-0.34375 -1.20313,0 -2.07813,0.76562 -0.85937,0.75 -0.85937,2.875 v 6.04688 z"
       id="path273"
       inkscape:connector-curvature="0"
       style="fill:#000000;fill-rule:nonzero" />
    <path
       d="m 405.18866,413.5032 v -1.39063 q -1.04687,1.64063 -3.09375,1.64063 -1.3125,0 -2.42187,-0.71875 -1.10938,-0.73438 -1.71875,-2.04688 -0.60938,-1.3125 -0.60938,-3 0,-1.65625 0.54688,-3 0.54687,-1.35937 1.65625,-2.07812 1.10937,-0.71875 2.46875,-0.71875 1,0 1.78125,0.42187 0.78125,0.42188 1.26562,1.09375 v -5.46875 h 1.875 v 15.26563 z m -5.92187,-5.51563 q 0,2.125 0.89062,3.17188 0.90625,1.04687 2.125,1.04687 1.21875,0 2.07813,-1 0.85937,-1 0.85937,-3.0625 0,-2.28125 -0.875,-3.34375 -0.875,-1.0625 -2.15625,-1.0625 -1.25,0 -2.09375,1.03125 -0.82812,1.01563 -0.82812,3.21875 z"
       id="path275"
       inkscape:connector-curvature="0"
       style="fill:#000000;fill-rule:nonzero" />
    <path
       d="m 723.97015,385.66998 v 0 c 0,-1.40897 1.19153,-2.55118 2.66138,-2.55118 v 0 c 0.70587,0 1.38281,0.2688 1.88189,0.74722 0.49915,0.47846 0.77954,1.12735 0.77954,1.80396 v 0 c 0,1.409 -1.19152,2.55118 -2.66143,2.55118 v 0 c -1.46985,0 -2.66138,-1.14218 -2.66138,-2.55118 z"
       id="path277"
       inkscape:connector-curvature="0"
       style="fill:#000000;fill-rule:evenodd" />
    <path
       d="m 472.48355,423.21008 5.5433,-9.51181 5.54331,9.51181 z"
       id="path279"
       inkscape:connector-curvature="0"
       style="fill:#ffffff;fill-rule:evenodd" />
    <path
       d="m 472.48355,423.21008 5.5433,-9.51181 5.54331,9.51181 z"
       id="path281"
       inkscape:connector-curvature="0"
       style="fill-rule:evenodd;stroke:#000000;stroke-width:1;stroke-linecap:butt;stroke-linejoin:round" />
    <path
       d="m 159.32773,239.15233 v 67.9055"
       id="path283"
       inkscape:connector-curvature="0"
       style="fill:#000000;fill-opacity:0;fill-rule:evenodd" />
    <path
       d="m 159.32773,239.15233 v 67.9055"
       id="path285"
       inkscape:connector-curvature="0"
       style="fill-rule:evenodd;stroke:#30182b;stroke-width:1;stroke-linecap:butt;stroke-linejoin:round" />
    <path
       d="M 159.18959,307.98447 H 64.85888"
       id="path287"
       inkscape:connector-curvature="0"
       style="fill:#000000;fill-opacity:0;fill-rule:evenodd" />
    <path
       d="M 159.18959,307.98447 H 64.85888"
       id="path289"
       inkscape:connector-curvature="0"
       style="fill-rule:evenodd;stroke:#30182b;stroke-width:1;stroke-linecap:butt;stroke-linejoin:round" />
    <path
       d="M 147.02332,240.01123 V 121.58603"
       id="path291"
       inkscape:connector-curvature="0"
       style="fill:#000000;fill-opacity:0;fill-rule:evenodd" />
    <path
       d="M 147.02332,240.01123 V 121.58603"
       id="path293"
       inkscape:connector-curvature="0"
       style="fill-rule:evenodd;stroke:#30182b;stroke-width:1;stroke-linecap:butt;stroke-linejoin:round" />
    <path
       d="m 120.06359,158.4011 h 59.937 v 44.7874 h -59.937 z"
       id="path295"
       inkscape:connector-curvature="0"
       style="fill:#ffffff;fill-rule:evenodd" />
    <path
       stroke-miterlimit="8.0"
       d="m 120.06359,158.4011 h 59.937 v 44.7874 h -59.937 z"
       id="path297"
       inkscape:connector-curvature="0"
       style="fill-rule:evenodd;stroke:#000000;stroke-width:2;stroke-linecap:butt;stroke-miterlimit:8" />
    <path
       d="m 149.79109,182.32167 h -5.67188 v 5.67187 h -1.73437 v -5.67187 h -5.67188 v -1.67188 h 5.67188 v -5.67187 h 1.73437 v 5.67187 h 5.67188 z m 13.4697,5.95312 h -8.39063 v -1.57812 h 3.23438 v -10.39063 h -3.23438 v -1.42187 q 0.65625,0 1.40625,-0.10938 0.75,-0.10937 1.14063,-0.3125 0.48437,-0.26562 0.75,-0.65625 0.28125,-0.40625 0.32812,-1.09375 h 1.60938 v 13.98438 h 3.15625 z"
       id="path299"
       inkscape:connector-curvature="0"
       style="fill:#000000;fill-rule:nonzero" />
    <path
       d="M 67.53938,122.44915 H 147.3504"
       id="path301"
       inkscape:connector-curvature="0"
       style="fill:#000000;fill-opacity:0;fill-rule:evenodd" />
    <path
       d="M 67.53938,122.44915 H 147.3504"
       id="path303"
       inkscape:connector-curvature="0"
       style="fill-rule:evenodd;stroke:#30182b;stroke-width:1;stroke-linecap:butt;stroke-linejoin:round" />
    <path
       d="m 799.9602,436.95242 5.54327,-9.51181 5.54334,9.51181 z"
       id="path305"
       inkscape:connector-curvature="0"
       style="fill:#ffffff;fill-rule:evenodd" />
    <path
       d="m 799.9602,436.95242 5.54327,-9.51181 5.54334,9.51181 z"
       id="path307"
       inkscape:connector-curvature="0"
       style="fill-rule:evenodd;stroke:#000000;stroke-width:1;stroke-linecap:butt;stroke-linejoin:round" />
    <path
       d="M 320.92874,299.4248 H 632.83429"
       id="path309"
       inkscape:connector-curvature="0"
       style="fill:#000000;fill-opacity:0;fill-rule:evenodd" />
    <path
       d="M 320.92874,299.4248 H 632.83429"
       id="path311"
       inkscape:connector-curvature="0"
       style="fill-rule:evenodd;stroke:#30182b;stroke-width:1;stroke-linecap:butt;stroke-linejoin:round" />
    <path
       d="M 916.0534,473.53296 H 565.62817"
       id="path313"
       inkscape:connector-curvature="0"
       style="fill:#000000;fill-opacity:0;fill-rule:evenodd" />
    <path
       d="M 916.0534,473.53296 H 565.62817"
       id="path315"
       inkscape:connector-curvature="0"
       style="fill-rule:evenodd;stroke:#30182b;stroke-width:1;stroke-linecap:butt;stroke-linejoin:round" />
    <path
       d="m 917.19684,386.39435 v 88.37796"
       id="path317"
       inkscape:connector-curvature="0"
       style="fill:#000000;fill-opacity:0;fill-rule:evenodd" />
    <path
       d="m 917.19684,386.39435 v 88.37796"
       id="path319"
       inkscape:connector-curvature="0"
       style="fill-rule:evenodd;stroke:#30182b;stroke-width:1;stroke-linecap:butt;stroke-linejoin:round" />
    <path
       d="M 565.1472,339.2587 V 476.45554"
       id="path321"
       inkscape:connector-curvature="0"
       style="fill:#000000;fill-opacity:0;fill-rule:evenodd" />
    <path
       d="M 565.1472,339.2587 V 476.45554"
       id="path323"
       inkscape:connector-curvature="0"
       style="fill-rule:evenodd;stroke:#30182b;stroke-width:1;stroke-linecap:butt;stroke-linejoin:round" />
    <path
       d="m 535.40845,222.64255 v 135.9685"
       id="path325"
       inkscape:connector-curvature="0"
       style="fill:#000000;fill-opacity:0;fill-rule:evenodd" />
    <path
       d="m 535.40845,222.64255 v 135.9685"
       id="path327"
       inkscape:connector-curvature="0"
       style="fill-rule:evenodd;stroke:#595959;stroke-width:1;stroke-linecap:butt;stroke-linejoin:round" />
    <path
       d="M 542.6491,238.81506 V 386.31112"
       id="path329"
       inkscape:connector-curvature="0"
       style="fill:#000000;fill-opacity:0;fill-rule:evenodd" />
    <path
       d="M 542.6491,238.81506 V 386.31112"
       id="path331"
       inkscape:connector-curvature="0"
       style="fill-rule:evenodd;stroke:#595959;stroke-width:1;stroke-linecap:butt;stroke-linejoin:round" />
    <path
       d="M 535.59265,223.41353 H 566.4588"
       id="path333"
       inkscape:connector-curvature="0"
       style="fill:#000000;fill-opacity:0;fill-rule:evenodd" />
    <path
       d="M 535.59265,223.41353 H 566.4588"
       id="path335"
       inkscape:connector-curvature="0"
       style="fill-rule:evenodd;stroke:#595959;stroke-width:1;stroke-linecap:butt;stroke-linejoin:round" />
    <path
       d="m 542.2184,239.70894 h 30.86609"
       id="path337"
       inkscape:connector-curvature="0"
       style="fill:#000000;fill-opacity:0;fill-rule:evenodd" />
    <path
       d="m 542.2184,239.70894 h 30.86609"
       id="path339"
       inkscape:connector-curvature="0"
       style="fill-rule:evenodd;stroke:#595959;stroke-width:1;stroke-linecap:butt;stroke-linejoin:round" />
    <path
       d="m 606.633,198.27332 v 27.77953"
       id="path341"
       inkscape:connector-curvature="0"
       style="fill:#000000;fill-opacity:0;fill-rule:evenodd" />
    <path
       d="m 606.633,198.27332 v 27.77953"
       id="path343"
       inkscape:connector-curvature="0"
       style="fill-rule:evenodd;stroke:#595959;stroke-width:1;stroke-linecap:butt;stroke-linejoin:round" />
    <path
       d="m 606.633,198.27332 7.49603,-8.81889"
       id="path345"
       inkscape:connector-curvature="0"
       style="fill:#000000;fill-opacity:0;fill-rule:evenodd" />
    <path
       d="m 606.633,198.27332 7.49603,-8.81889"
       id="path347"
       inkscape:connector-curvature="0"
       style="fill-rule:evenodd;stroke:#595959;stroke-width:1;stroke-linecap:butt;stroke-linejoin:round" />
    <path
       d="m 556.80096,207.52849 h 70.89764 v 39.30708 h -70.89764 z"
       id="path349"
       inkscape:connector-curvature="0"
       style="fill:#ffffff;fill-rule:evenodd" />
    <path
       stroke-miterlimit="8.0"
       d="m 556.80096,207.52849 h 70.89764 v 39.30708 h -70.89764 z"
       id="path351"
       inkscape:connector-curvature="0"
       style="fill-rule:evenodd;stroke:#000000;stroke-width:2;stroke-linecap:butt;stroke-miterlimit:8" />
    <path
       d="m 585.7029,233.86516 -12.01563,-5.34375 v -1.29688 l 12.01563,-5.34375 v 1.875 l -9.46875,4.10938 9.46875,4.125 z m 25.10852,-5.34375 -12.01563,5.34375 v -1.875 l 9.46875,-4.125 -9.46875,-4.10938 v -1.875 l 12.01563,5.34375 z"
       id="path353"
       inkscape:connector-curvature="0"
       style="fill:#000000;fill-rule:nonzero" />
    <path
       d="m 207.73717,356.97122 v 67.90552"
       id="path355"
       inkscape:connector-curvature="0"
       style="fill:#000000;fill-opacity:0;fill-rule:evenodd" />
    <path
       d="m 207.73717,356.97122 v 67.90552"
       id="path357"
       inkscape:connector-curvature="0"
       style="fill-rule:evenodd;stroke:#30182b;stroke-width:1;stroke-linecap:butt;stroke-linejoin:round" />
    <path
       d="m 112.39202,375.95813 h 103.90551 v 104.6929 H 112.39202 Z"
       id="path359"
       inkscape:connector-curvature="0"
       style="fill:#ffffff;fill-rule:evenodd" />
    <path
       stroke-miterlimit="8.0"
       d="m 112.39202,375.95813 h 103.90551 v 104.6929 H 112.39202 Z"
       id="path361"
       inkscape:connector-curvature="0"
       style="fill-rule:evenodd;stroke:#000000;stroke-width:2;stroke-linecap:butt;stroke-miterlimit:8" />
    <path
       d="m 133.19069,421.46457 h -8.40625 v -2.17188 h 2.78125 v -16.96875 h -2.78125 v -2.1875 h 8.40625 v 2.1875 h -2.78125 v 16.96875 h 2.78125 z m 23.82854,0 h -2.84375 v -18.375 l -5.92188,12.5 h -1.6875 l -5.89062,-12.5 v 18.375 h -2.65625 v -21.32813 h 3.875 l 5.6875,11.875 5.5,-11.875 h 3.9375 z m 18.88884,-7.71875 h -11.78125 q 0,1.46875 0.4375,2.57812 0.45312,1.09375 1.23437,1.79688 0.73438,0.6875 1.75,1.03125 1.03125,0.34375 2.26563,0.34375 1.64062,0 3.28125,-0.65625 1.65625,-0.65625 2.35937,-1.28125 h 0.14063 v 2.9375 q -1.35938,0.5625 -2.78125,0.95312 -1.40625,0.39063 -2.96875,0.39063 -3.98438,0 -6.21875,-2.15625 -2.23438,-2.15625 -2.23438,-6.125 0,-3.92188 2.14063,-6.21875 2.14062,-2.3125 5.64062,-2.3125 3.23438,0 4.98438,1.89062 1.75,1.89063 1.75,5.375 z m -2.60938,-2.0625 q -0.0156,-2.125 -1.07812,-3.28125 -1.04688,-1.15625 -3.1875,-1.15625 -2.17188,0 -3.45313,1.28125 -1.28125,1.26562 -1.45312,3.15625 z m 30.03336,9.78125 h -2.6875 v -9.10938 q 0,-1.03125 -0.0937,-1.98437 -0.0937,-0.96875 -0.39063,-1.53125 -0.32812,-0.625 -0.95312,-0.9375 -0.60938,-0.3125 -1.76563,-0.3125 -1.14062,0 -2.26562,0.5625 -1.125,0.5625 -2.26563,1.4375 0.0469,0.32812 0.0781,0.76562 0.0312,0.4375 0.0312,0.875 v 10.23438 h -2.70313 v -9.10938 q 0,-1.0625 -0.0937,-2.01562 -0.0937,-0.95313 -0.39062,-1.51563 -0.32813,-0.625 -0.95313,-0.92187 -0.60937,-0.3125 -1.76562,-0.3125 -1.10938,0 -2.21875,0.54687 -1.10938,0.54688 -2.20313,1.39063 v 11.9375 h -2.6875 v -16 h 2.6875 v 1.78125 q 1.26563,-1.04688 2.51563,-1.625 1.25,-0.59375 2.67187,-0.59375 1.625,0 2.76563,0.6875 1.14062,0.6875 1.70312,1.90625 1.625,-1.375 2.96875,-1.98438 1.34375,-0.60937 2.875,-0.60937 2.64063,0 3.89063,1.59375 1.25,1.59375 1.25,4.46875 z"
       id="path363"
       inkscape:connector-curvature="0"
       style="fill:#000000;fill-rule:nonzero" />
    <path
       d="m 165.51227,456.46457 h -3.67188 l -7.14062,-8.48438 h -3.98438 v 8.48438 h -2.84375 v -21.32813 h 5.96875 q 1.9375,0 3.21875,0.25 1.29688,0.25 2.32813,0.90625 1.15625,0.71875 1.8125,1.82813 0.65625,1.10937 0.65625,2.82812 0,2.29688 -1.17188,3.85938 -1.15625,1.54687 -3.1875,2.32812 z m -6.625,-15.32813 q 0,-0.90625 -0.32813,-1.60937 -0.3125,-0.71875 -1.0625,-1.20313 -0.60937,-0.42187 -1.45312,-0.57812 -0.84375,-0.17188 -2,-0.17188 h -3.32813 v 8.04688 h 2.85938 q 1.34375,0 2.34375,-0.23438 1.01562,-0.23437 1.70312,-0.875 0.65625,-0.60937 0.95313,-1.39062 0.3125,-0.78125 0.3125,-1.98438 z m 22.14221,15.32813 h -2.6875 v -1.67188 q -1.17187,1 -2.4375,1.5625 -1.25,0.54688 -2.71875,0.54688 -2.875,0 -4.5625,-2.20313 -1.67187,-2.20312 -1.67187,-6.10937 0,-2.03125 0.57812,-3.625 0.57813,-1.59375 1.5625,-2.70313 0.98438,-1.09375 2.28125,-1.65625 1.29688,-0.57812 2.6875,-0.57812 1.25,0 2.21875,0.26562 0.98438,0.26563 2.0625,0.82813 v -6.9375 h 2.6875 z m -2.6875,-3.9375 v -9.1875 q -1.09375,-0.48438 -1.95312,-0.67188 -0.85938,-0.1875 -1.875,-0.1875 -2.26563,0 -3.53125,1.57813 -1.25,1.57812 -1.25,4.46875 0,2.85937 0.96875,4.34375 0.96875,1.46875 3.125,1.46875 1.14062,0 2.3125,-0.5 1.1875,-0.51563 2.20312,-1.3125 z"
       id="path365"
       inkscape:connector-curvature="0"
       style="fill:#000000;fill-rule:nonzero" />
  </g>
</svg>
